<?xml version="1.0" encoding="UTF-8"?>
<svg id="Layer_2" data-name="Layer 2" xmlns="http://www.w3.org/2000/svg" viewBox="0 0 267.76 75.69">
  <defs>
    <style>
      .cls-1 {
        fill: #262626;
        stroke-width: 0px;
      }
    </style>
  </defs>
  <g id="Layer_1-2" data-name="Layer 1">
    <g>
      <path class="cls-1" d="M185.37,74.37h20.09v-29.85c0-6.11,3.59-9.37,8.46-9.37s8.14,3.26,8.14,9.37v29.85h19.98v-36.06c0-12.53-7.29-20.27-19.45-20.27-8.14,0-13.43,4.18-17.13,8.76V0h-20.09v74.37ZM157.27,75.59c13.96,0,23.36-6.32,23.36-18.44v-.2c0-10.7-8.99-14.47-20.3-17.52-5.92-1.73-9.3-2.75-9.3-4.89v-.2c0-1.63,1.59-2.75,4.65-2.75,4.55,0,11,1.94,16.91,5.2l6.87-12.22c-6.55-4.08-15.22-6.42-23.58-6.42-13.22,0-22.94,6.52-22.94,18.24v.2c0,11,8.99,14.67,20.3,17.52,6.03,1.63,9.3,2.55,9.3,4.79v.2c0,1.94-1.69,2.95-5.18,2.95-5.92,0-13-2.14-19.56-6.32l-7.51,11.61c7.82,5.5,17.34,8.25,26.96,8.25M98.47,59.29c-7.08,0-12.16-5.71-12.16-12.43v-.2c0-6.72,4.65-12.33,11.95-12.33s12.26,5.71,12.26,12.53v.2c0,6.62-4.76,12.22-12.05,12.22M98.26,75.69c18.39,0,31.72-13.14,31.72-28.83v-.2c0-15.69-13.21-28.63-31.5-28.63s-31.61,13.14-31.61,28.83v.2c0,15.69,13.21,28.63,31.4,28.63M31.4,59.39c-6.45,0-11.74-5.2-11.74-12.53v-.2c0-7.33,5.29-12.53,11.74-12.53s11.73,5.3,11.73,12.53v.2c0,7.34-5.18,12.53-11.73,12.53M25.37,75.59c8.56,0,13.43-3.97,17.34-8.56v7.34h20.09V0h-20.09v25.98c-3.7-4.18-8.77-7.95-17.44-7.95C11.73,18.03,0,28.93,0,46.86v.2c0,17.62,11.73,28.52,25.37,28.52"/>
      <path class="cls-1" d="M257.07,75.69c-5.95.03-10.77-4.54-10.83-10.26-.06-5.67,4.79-10.4,10.68-10.42,5.92-.02,10.8,4.61,10.84,10.28.03,5.71-4.75,10.36-10.69,10.4"/>
    </g>
  </g>
</svg>